#!OML:ASF H:\Terrain\Patient Classification 1\Walking\liu\liu.ASF
:FULLY-SPECIFIED
:DEGREES
16
root 8.34831 16.3253 -30.6234 5.15597 3.87518 -2.80306
lowerback -4.13841 -1.27125 -0.59997
upperback -0.415264 -1.74652 3.8013
thorax 2.03133 -0.893322 4.15652
lowerneck -22.3987 -3.4458 -11.2263
upperneck 17.5177 -4.24908 13.992
head 9.81554 -1.15005 6.23296
rclavicle -8.3738e-015 -1.19271e-014
rhumerus -39.1595 14.6151 -88.0636
rradius 32.0999
rwrist -12.7412
rhand -28.8994 -26.0509
rfingers 7.12502
rthumb -2.25458 -56.0187
lclavicle -8.3738e-015 -1.19271e-014
lhumerus -37.0654 -10.8169 95.1667
lradius 20.9722
lwrist -3.6218
lhand 4.13915 -17.1579
lfingers 7.12502
lthumb 29.5485 10.5101
rfemur -18.5825 0.406921 29.2064
rtibia 25.5069
rfoot -11.8773 0.306083
rtoes -6.57062
lfemur -15.4183 13.859 -14.3358
ltibia 66.21
lfoot -3.99052 16.6722
ltoes -5.98497
17
root 8.32622 16.3282 -30.502 5.25075 3.64405 -2.82281
lowerback -3.94174 -1.1502 -0.736573
upperback -0.522232 -1.57296 3.80112
thorax 1.80109 -0.803798 4.24876
lowerneck -22.2351 -3.49997 -11.3757
upperneck 17.5823 -4.31337 14.0592
head 9.82302 -1.18815 6.27537
rclavicle 3.8763e-015 -2.14687e-014
rhumerus -38.8768 15.2745 -88.1741
rradius 32.3426
rwrist -13.0582
rhand -28.9197 -23.2179
rfingers 7.12502
rthumb -2.27412 -53.1855
lclavicle 3.8763e-015 -2.14687e-014
lhumerus -37.788 -10.0513 94.7224
lradius 20.622
lwrist -4.48557
lhand 3.78172 -17.5906
lfingers 7.12502
lthumb 29.2073 10.1374
rfemur -18.0319 0.788377 29.3483
rtibia 25.12
rfoot -11.8006 0.121211
rtoes -6.90711
lfemur -17.1443 13.8868 -14.5634
ltibia 67.3139
lfoot -4.89944 16.9193
ltoes -4.14537
18
root 8.31395 16.3333 -30.3699 5.15097 3.48602 -2.89748
lowerback -3.8395 -1.04759 -0.68943
upperback -0.469391 -1.43859 3.82863
thorax 1.78698 -0.736754 4.25965
lowerneck -21.7894 -3.60325 -12.0383
upperneck 17.1627 -4.33335 14.4498
head 9.62448 -1.21805 6.51215
rclavicle -2.25869e-014 1.74931e-014
rhumerus -38.4017 15.9039 -88.1193
rradius 32.4984
rwrist -13.4539
rhand -28.6984 -22.343
rfingers 7.12502
rthumb -2.06043 -52.3128
lclavicle -2.25869e-014 1.74931e-014
lhumerus -38.5297 -9.48831 94.4127
lradius 20.5873
lwrist -5.30787
lhand 3.79095 -17.3829
lfingers 7.12502
lthumb 29.2161 10.3434
rfemur -17.2475 0.808282 29.5509
rtibia 24.8449
rfoot -11.9381 0.0331523
rtoes -8.63038
lfemur -18.5129 13.8406 -14.7148
ltibia 68.1731
lfoot -5.51837 17.0445
ltoes -4.06316
19
root 8.30763 16.34 -30.2347 5.08453 3.32149 -3.15006
lowerback -3.80916 -0.730586 -0.313691
upperback -0.450722 -1.03195 3.90648
thorax 1.75149 -0.530325 4.15049
lowerneck -21.2685 -4.0002 -13.2763
upperneck 16.744 -4.64851 15.0796
head 9.48271 -1.40157 6.89629
rclavicle -3.18055e-015 -3.4191e-014
rhumerus -37.934 15.811 -87.588
rradius 32.6378
rwrist -13.5082
rhand -28.4972 -22.322
rfingers 7.12502
rthumb -1.86614 -52.2936
lclavicle -3.18055e-015 -3.4191e-014
lhumerus -39.1735 -9.6333 94.6218
lradius 20.4733
lwrist -5.69144
lhand 3.7908 -16.9866
lfingers 7.12502
lthumb 29.216 10.7398
rfemur -16.5044 0.797783 29.9123
rtibia 24.6621
rfoot -12.3641 -0.0686103
rtoes -10.9678
lfemur -19.8286 13.7727 -14.6968
ltibia 68.8112
lfoot -6.24378 16.8619
ltoes -4.76779
20
root 8.29584 16.3469 -30.1044 5.2647 3.05222 -3.18741
lowerback -3.85475 -0.7637 -0.433845
upperback -0.447826 -1.07109 3.84108
thorax 1.78387 -0.551027 4.14785
lowerneck -21.7929 -3.79513 -12.5048
upperneck 17.2226 -4.50648 14.6741
head 9.69021 -1.30625 6.65534
rclavicle 9.93923e-016 1.19271e-014
rhumerus -37.1087 16.1796 -87.7134
rradius 32.5062
rwrist -13.0643
rhand -28.3414 -21.5394
rfingers 7.12502
rthumb -1.71564 -51.5123
lclavicle 9.93923e-016 1.19271e-014
lhumerus -39.4454 -8.60103 93.7004
lradius 20.0609
lwrist -6.23437
lhand 4.06022 -17.4488
lfingers 7.12502
lthumb 29.4732 10.2326
rfemur -16.1361 0.999838 30.025
rtibia 24.5833
rfoot -12.7323 -0.0523428
rtoes -11.4733
lfemur -21.4035 13.7794 -14.979
ltibia 69.2288
lfoot -7.09449 16.6355
ltoes -4.30838
21
root 8.29781 16.3513 -29.986 5.59237 2.2758 -2.84037
lowerback -3.86743 -0.552649 -0.735072
upperback -0.562645 -0.770246 3.6598
thorax 1.65127 -0.399119 4.14653
lowerneck -21.97 -3.63788 -11.9694
upperneck 17.5498 -4.41179 14.3963
head 9.80123 -1.24779 6.48707
rclavicle -2.68359e-015 3.97569e-015
rhumerus -36.5481 16.6146 -87.7865
rradius 32.5525
rwrist -12.9543
rhand -28.4044 -21.3198
rfingers 7.12502
rthumb -1.77647 -51.2921
lclavicle -2.68359e-015 3.97569e-015
lhumerus -39.7981 -7.50569 92.8236
lradius 19.4891
lwrist -6.87661
lhand 4.68768 -18.5269
lfingers 7.12502
lthumb 30.072 9.04731
rfemur -16.0513 1.05007 29.6369
rtibia 24.5362
rfoot -12.6761 0.702901
rtoes -11.4512
lfemur -23.0764 14.126 -15.9231
ltibia 69.4501
lfoot -7.79324 16.8049
ltoes -2.86178
22
root 8.29407 16.3483 -29.8558 5.73737 2.08347 -2.70089
lowerback -3.98976 -0.457024 -0.824425
upperback -0.558665 -0.638154 3.54318
thorax 1.71319 -0.333962 4.08235
lowerneck -21.7596 -3.65337 -12.0228
upperneck 17.3669 -4.47604 14.6372
head 9.71799 -1.26308 6.5675
rclavicle -7.45443e-016 1.35174e-014
rhumerus -36.005 17.1558 -87.8459
rradius 32.7257
rwrist -13.2029
rhand -28.552 -22.0685
rfingers 7.12502
rthumb -1.91901 -52.0396
lclavicle -7.45443e-016 1.35174e-014
lhumerus -40.263 -6.88664 92.1763
lradius 19.1658
lwrist -7.23317
lhand 4.9789 -19.463
lfingers 7.12502
lthumb 30.3498 8.06039
rfemur -15.6399 1.1222 29.5355
rtibia 24.4908
rfoot -12.9198 0.82212
rtoes -11.8858
lfemur -24.5878 13.9577 -16.4724
ltibia 69.5481
lfoot -8.38722 16.8326
ltoes -2.64092
23
root 8.28585 16.3438 -29.7248 5.75182 1.82635 -3.10007
lowerback -4.05205 -0.283169 -0.398491
upperback -0.461834 -0.428094 3.54467
thorax 1.82837 -0.228143 3.85395
lowerneck -21.7656 -3.75829 -12.1461
upperneck 17.2368 -4.61303 14.8282
head 9.70448 -1.31497 6.63526
rclavicle -2.5842e-015 2.46493e-014
rhumerus -35.2711 17.3812 -87.7733
rradius 32.8659
rwrist -13.269
rhand -28.776 -22.5277
rfingers 7.12502
rthumb -2.1354 -52.4968
lclavicle -2.5842e-015 2.46493e-014
lhumerus -40.7829 -6.56081 91.5932
lradius 19.2627
lwrist -7.47113
lhand 5.07526 -19.9276
lfingers 7.12502
lthumb 30.4418 7.57873
rfemur -15.1051 1.32973 30.027
rtibia 24.5056
rfoot -13.2308 0.912293
rtoes -11.2726
lfemur -25.9348 13.9228 -16.3204
ltibia 69.553
lfoot -9.14082 16.5747
ltoes -3.25342
24
root 8.28023 16.3425 -29.5968 5.73242 1.51293 -3.50747
lowerback -3.92986 -0.0581959 0.0475156
upperback -0.406305 -0.146901 3.5577
thorax 1.79615 -0.0843651 3.63045
lowerneck -21.9843 -3.87128 -12.0925
upperneck 17.3318 -4.74682 14.7038
head 9.79317 -1.37851 6.56508
rclavicle 5.91384e-015 2.06736e-014
rhumerus -34.61 17.4732 -87.6283
rradius 33.1081
rwrist -13.3197
rhand -29.0645 -22.9614
rfingers 7.12502
rthumb -2.41405 -52.9275
lclavicle 5.91384e-015 2.06736e-014
lhumerus -41.3267 -6.41177 91.148
lradius 19.4669
lwrist -7.36131
lhand 5.33836 -19.8006
lfingers 7.12502
lthumb 30.6926 7.659
rfemur -14.6124 1.42699 30.5312
rtibia 24.5229
rfoot -13.6056 1.02594
rtoes -11.6897
lfemur -27.1932 14.015 -16.1751
ltibia 69.3893
lfoot -9.63145 16.3396
ltoes -3.53497
25
root 8.27925 16.3398 -29.4668 5.62384 1.31999 -3.47071
lowerback -3.71329 0.0720289 -0.0100361
upperback -0.356891 0.0323463 3.55894
thorax 1.71421 0.00517423 3.67305
lowerneck -22.3146 -3.89627 -11.9445
upperneck 17.7032 -4.76882 14.4264
head 9.974 -1.39533 6.45022
rclavicle 1.68967e-015 1.59028e-015
rhumerus -34.0867 17.7905 -87.3757
rradius 33.3916
rwrist -13.4197
rhand -29.2734 -23.7325
rfingers 7.12502
rthumb -2.61573 -53.6962
lclavicle 1.68967e-015 1.59028e-015
lhumerus -41.9063 -6.09829 90.8641
lradius 19.5892
lwrist -6.93767
lhand 6.27832 -19.4795
lfingers 7.12502
lthumb 31.5885 7.80814
rfemur -13.9808 1.5294 30.542
rtibia 24.5128
rfoot -14.136 0.903078
rtoes -12.8391
lfemur -28.2516 13.9098 -16.5474
ltibia 69.0241
lfoot -9.93513 16.6418
ltoes -3.17914
26
root 8.27924 16.3267 -29.3379 5.53067 1.08125 -3.38972
lowerback -3.42045 0.182103 -0.147859
upperback -0.43126 0.19217 3.59677
thorax 1.46275 0.0871335 3.79581
lowerneck -22.353 -3.87745 -12.0304
upperneck 18.112 -4.72709 14.3279
head 10.1172 -1.3903 6.45267
rclavicle -3.35449e-015 -2.38542e-015
rhumerus -33.6755 17.9951 -87.056
rradius 33.4937
rwrist -13.3634
rhand -29.2146 -23.9877
rfingers 7.12502
rthumb -2.55897 -53.9521
lclavicle -3.35449e-015 -2.38542e-015
lhumerus -42.6534 -5.7843 90.7364
lradius 19.6924
lwrist -6.3465
lhand 7.40997 -18.2871
lfingers 7.12502
lthumb 32.6658 8.78298
rfemur -13.3877 1.84174 30.4665
rtibia 24.6007
rfoot -14.5408 0.863023
rtoes -12.162
lfemur -29.2893 13.7599 -16.968
ltibia 68.5207
lfoot -10.5774 17.0204
ltoes -3.18923
27
root 8.27487 16.3057 -29.2124 5.48889 0.870481 -3.60037
lowerback -3.28776 0.341117 0.094094
upperback -0.382868 0.396764 3.60203
thorax 1.42597 0.190817 3.67265
lowerneck -22.3173 -3.999 -12.2786
upperneck 18.0591 -4.83533 14.423
head 10.1181 -1.44913 6.51285
rclavicle -3.08116e-015 1.51076e-014
rhumerus -32.8781 17.8841 -86.747
rradius 33.4594
rwrist -13.3953
rhand -29.1354 -23.8004
rfingers 7.12502
rthumb -2.48251 -53.7657
lclavicle -3.08116e-015 1.51076e-014
lhumerus -43.0559 -5.79529 90.5298
lradius 19.761
lwrist -5.96744
lhand 7.60571 -16.7511
lfingers 7.12502
lthumb 32.8521 10.2802
rfemur -12.9244 2.05868 30.7423
rtibia 24.7556
rfoot -14.8099 0.947686
rtoes -11.1328
lfemur -30.4367 13.6579 -17.0119
ltibia 67.9304
lfoot -11.3073 16.5992
ltoes -3.58543
28
root 8.27021 16.2906 -29.0862 5.60343 0.633135 -3.90978
lowerback -3.47732 0.541373 0.431494
upperback -0.224753 0.640978 3.64597
thorax 1.68258 0.311903 3.54258
lowerneck -22.3944 -4.18748 -12.5838
upperneck 17.8068 -4.98818 14.5306
head 10.0787 -1.52777 6.57302
rclavicle -4.96962e-016 6.44062e-014
rhumerus -31.9245 17.7997 -86.3329
rradius 33.5433
rwrist -13.5334
rhand -29.3135 -22.8109
rfingers 7.12502
rthumb -2.65449 -52.7741
lclavicle -4.96962e-016 6.44062e-014
lhumerus -43.1396 -5.60218 90.1734
lradius 19.8089
lwrist -5.98807
lhand 7.36195 -16.7891
lfingers 7.12502
lthumb 32.6202 10.2905
rfemur -12.6186 2.38478 31.0911
rtibia 24.8735
rfoot -15.2703 0.890989
rtoes -12.2574
lfemur -31.7039 13.5838 -16.9738
ltibia 67.1848
lfoot -11.4766 16.2801
ltoes -2.0042
29
root 8.26995 16.2806 -28.9561 5.87057 0.460907 -4.14548
lowerback -3.69089 0.690644 0.586434
upperback -0.31474 0.828307 3.82512
thorax 1.69851 0.406803 3.65273
lowerneck -21.9959 -4.31136 -13.2019
upperneck 17.6455 -5.03917 14.7579
head 9.9807 -1.58483 6.74916
rclavicle 7.10655e-015 -1.74931e-014
rhumerus -31.5258 17.9614 -85.8531
rradius 33.7729
rwrist -13.6669
rhand -29.3661 -21.4657
rfingers 7.12502
rthumb -2.70527 -51.4283
lclavicle 7.10655e-015 -1.74931e-014
lhumerus -43.6178 -5.10571 89.9866
lradius 19.831
lwrist -5.98133
lhand 7.27489 -16.8156
lfingers 7.12502
lthumb 32.5373 10.2811
rfemur -12.4266 2.7798 31.3179
rtibia 24.9387
rfoot -16.0004 0.885581
rtoes -12.9664
lfemur -33.0211 13.4184 -17.0747
ltibia 66.2152
lfoot -11.5964 16.1986
ltoes 0.15152
30
root 8.27015 16.2652 -28.8243 5.98051 0.379354 -4.02004
lowerback -3.77226 0.750089 0.367532
upperback -0.377306 0.915951 3.87937
thorax 1.67027 0.449765 3.83804
lowerneck -21.6492 -4.35785 -13.5154
upperneck 17.5953 -5.04712 14.7952
head 9.91003 -1.61904 6.81156
rclavicle 2.73329e-015 1.03368e-014
rhumerus -31.0385 18.1037 -85.5043
rradius 33.7794
rwrist -13.8288
rhand -29.2434 -21.3983
rfingers 7.12502
rthumb -2.5868 -51.3624
lclavicle 2.73329e-015 1.03368e-014
lhumerus -44.2377 -5.0521 90.0207
lradius 19.8753
lwrist -5.49277
lhand 7.35191 -15.43
lfingers 7.12502
lthumb 32.6106 11.6516
rfemur -12.0273 2.52161 31.2581
rtibia 24.9523
rfoot -16.5115 1.26441
rtoes -11.849
lfemur -34.0337 13.1508 -17.5248
ltibia 64.9822
lfoot -12.2935 15.3297
ltoes -3.35422
